<svg width="121" height="112" viewBox="0 0 121 112" fill="none" xmlns="http://www.w3.org/2000/svg">
<g id="Pattern">
<path id="Ornament 21" d="M7.71655 12.4725C7.71655 12.4725 11.2394 2 18.5565 2C25.8736 2 29.6122 12.4725 36.9293 12.4725C44.2465 12.4725 47.985 2 55.3022 2C62.6193 2 66.3579 12.4725 73.675 12.4725C80.9921 12.4725 79.9218 2 92.0478 2C104.174 2 114.279 8.61422 114.279 8.61422" stroke="white" stroke-opacity="0.1" stroke-width="4" stroke-linecap="round"/>
<path id="Ornament 22" d="M2.41292 81.2323C2.41292 81.2323 12.0015 78.365 16.975 68.794C21.9485 59.223 30.0862 71.8318 35.7238 68.5769C41.3614 65.3221 41.394 58.7265 47.0316 55.4717C52.6692 52.2168 58.3974 55.4863 64.035 52.2315C69.6726 48.9766 64.2547 41.4971 73.5974 36.103C82.9401 30.709 83.7801 37.827 92.7828 34.8873" stroke="white" stroke-opacity="0.1" stroke-width="2" stroke-linecap="round" stroke-dasharray="2 10"/>
<path id="Ornament 23" d="M54.4363 84.1953C64.4846 80.2747 62.7163 101.508 69.1015 102.775C75.4866 104.043 79.4369 92.7168 85.822 93.9843C92.2071 95.2517 94.3606 101.486 100.746 102.753C107.131 104.021 107.212 95.3743 118.567 96.9252" stroke="white" stroke-opacity="0.1" stroke-width="4" stroke-linecap="round" stroke-dasharray="8 8"/>
</g>
</svg>
