<svg width="112" height="108" viewBox="0 0 112 108" fill="none" xmlns="http://www.w3.org/2000/svg">
<g id="Pattern" opacity="0.2">
<path id="Shape" d="M84.135 0C84.135 15.3892 71.6594 27.8648 56.2702 27.8648V0L84.135 0Z" fill="#BCCAD6"/>
<path id="Shape_2" d="M28.4055 55.8257V69.7581C28.4055 77.4527 22.1678 83.6905 14.4731 83.6905V69.7581C14.4731 62.0635 20.7109 55.8257 28.4055 55.8257Z" fill="#5B6C8C"/>
<path id="Shape_3" d="M42.3379 83.6905V69.7581C42.3379 62.0635 36.1001 55.8257 28.4055 55.8257V69.7581C28.4055 77.4527 34.6433 83.6905 42.3379 83.6905Z" fill="#2C3658"/>
<path id="Shape_4" d="M14.4732 66.8755V80.8079C14.4732 88.5025 8.23541 94.7403 0.540771 94.7403L0.540772 80.8079C0.540772 73.1133 6.77853 66.8755 14.4732 66.8755Z" fill="#BCCAD6"/>
<path id="Shape_5" d="M84.135 69.662H98.0674C105.762 69.662 112 63.4242 112 55.7296H98.0674C90.3728 55.7296 84.135 61.9674 84.135 69.662Z" fill="#2C3658"/>
<path id="Shape_6" d="M70.2026 83.5944H84.135C91.8296 83.5944 98.0674 77.3566 98.0674 69.662H84.135C76.4404 69.662 70.2026 75.8998 70.2026 83.5944Z" fill="#BCCAD6"/>
<path id="Shape_7" d="M84.135 0V27.8648C84.135 43.2539 96.6106 55.7296 112 55.7296V27.8648C112 12.4756 99.5242 0 84.135 0Z" fill="#BCCAD6"/>
<path id="Shape_8" d="M98.0676 27.9608V41.775C98.0676 49.4818 104.305 55.7295 112 55.7295V41.9154C112 34.2083 105.762 27.9608 98.0676 27.9608Z" fill="#2C3658"/>
<path id="Shape_9" d="M0.540773 55.8256L0.540771 27.9128C0.540771 12.4971 13.0163 0 28.4056 0V27.9128C28.4056 43.3285 15.9301 55.8256 0.540773 55.8256Z" fill="#2C3658"/>
<path id="Shape_10" d="M14.4731 27.7687V13.9546C14.4731 6.24775 20.7109 0 28.4055 0V13.8142C28.4055 21.5213 22.1678 27.7687 14.4731 27.7687Z" fill="#BCCAD6"/>
<path id="Shape_11" d="M56.2703 0V27.8648C56.2703 43.2539 43.7947 55.7296 28.4055 55.7296V27.8648C28.4055 12.4756 40.8811 0 56.2703 0Z" fill="#5B6C8C"/>
<path id="Shape_12" d="M42.3379 28.0569V41.871C42.3379 49.5779 36.1001 55.8256 28.4055 55.8256V42.0114C28.4055 34.3043 34.6433 28.0569 42.3379 28.0569Z" fill="#5B6C8C"/>
<path id="Shape_13" d="M72.8931 62.7918C72.8931 60.4835 74.7645 58.6121 77.0728 58.6121C79.3811 58.6121 81.2525 60.4835 81.2525 62.7918C81.2525 65.1001 79.3811 66.9715 77.0728 66.9715C74.7645 66.9715 72.8931 65.1001 72.8931 62.7918Z" fill="#BCCAD6"/>
<path id="Shape_14" d="M24.8504 103.82C24.8504 106.129 22.9791 108 20.6707 108C18.3623 108 16.491 106.129 16.491 103.82C16.491 101.512 18.3623 99.6406 20.6707 99.6406C22.9791 99.6406 24.8504 101.512 24.8504 103.82Z" fill="#BCCAD6"/>
<path id="Shape_15" d="M11.6866 103.82C11.6866 106.129 9.81527 108 7.50687 108C5.19846 108 3.32715 106.129 3.32715 103.82C3.32715 101.512 5.19846 99.6406 7.50687 99.6406C9.81527 99.6406 11.6866 101.512 11.6866 103.82Z" fill="#2C3658"/>
<path id="Shape_16" d="M24.8504 90.6566C24.8504 92.965 22.9791 94.8364 20.6707 94.8364C18.3623 94.8364 16.491 92.965 16.491 90.6566C16.491 88.3483 18.3623 86.4769 20.6707 86.4769C22.9791 86.4769 24.8504 88.3483 24.8504 90.6566Z" fill="#BCCAD6"/>
<path id="Shape_17" d="M3.80762 62.7438C3.80762 60.6742 5.48537 58.9965 7.55495 58.9965C9.62453 58.9965 11.3023 60.6742 11.3023 62.7438C11.3023 64.8134 9.62453 66.4911 7.55495 66.4911C5.48537 66.4911 3.80762 64.8134 3.80762 62.7438Z" fill="#BCCAD6"/>
<path id="Shape_18" d="M56.2703 41.7971C56.2703 34.1026 62.5081 27.8647 70.2027 27.8647C77.8972 27.8647 84.135 34.1026 84.135 41.7971C84.135 49.4917 77.8972 55.7295 70.2027 55.7295C62.5081 55.7295 56.2703 49.4917 56.2703 41.7971Z" fill="#5B6C8C"/>
<path id="Shape_19" d="M56.2703 83.6905C63.9649 83.6905 70.2027 77.4527 70.2027 69.7581C70.2027 62.0635 63.9649 55.8257 56.2703 55.8257C48.5757 55.8257 42.3379 62.0635 42.3379 69.7581V83.6905H56.2703Z" fill="#BCCAD6"/>
</g>
</svg>
